<?xml version="1.0" encoding="utf-8"?>
<!-- Generator: Adobe Illustrator 28.1.0, SVG Export Plug-In . SVG Version: 6.00 Build 0)  -->
<svg version="1.1" id="Laag_1" xmlns="http://www.w3.org/2000/svg" xmlns:xlink="http://www.w3.org/1999/xlink" x="0px" y="0px"
	 viewBox="0 0 176.02 176.02" style="enable-background:new 0 0 176.02 176.02;" xml:space="preserve">
<style type="text/css">
	.st0{fill:#97C165;}
	.st1{fill:#FFFFFF;}
</style>
<rect class="st0" width="176.02" height="176.02"/>
<g>
	<path class="st1" d="M90.29,68.07c2.54-4.4,5.43-9.53,7.55-14.03c1.64-3.49,3.52-2.03-1.16-4.67c-1.66-0.93-3.26-2-5.13-1.22
		c-5.43,2.25-5.24,15.21-5.86,19.9c-18.3-5.64-32.68,4.26-31.97,23.16c0.36,9.49,3.78,18.5,9.51,26.19
		c2.91,3.89,6.28,7.63,10.98,9.5c4.77,1.9,8.18,0.17,12.82,0.15c4.67-0.01,8.56,1.94,13.36,0.66c4.75-1.27,8.22-4.59,11.21-8.2
		c6.08-7.31,9.81-16.25,10.58-25.59C123.88,73.12,110.91,62.26,90.29,68.07"/>
	<path class="st1" d="M100.31,61.23c5.38-11.76,10.16-6.93,20.42-3.71C112.88,65.6,110.21,67.18,100.31,61.23
		C101.02,59.66,100.31,61.23,100.31,61.23"/>
</g>
</svg>
