<?xml version="1.0" encoding="UTF-8"?>
<svg id="Laag_1" data-name="Laag 1" xmlns="http://www.w3.org/2000/svg" viewBox="0 0 728.51 185.03">
  <defs>
    <style>
      .cls-1 {
        fill: #181d20;
        stroke-width: 0px;
      }
    </style>
  </defs>
  <polygon class="cls-1" points="557.37 185.03 514.75 185.03 457.39 49.49 400.04 185.03 321.64 185.03 264.29 49.49 206.94 185.03 123.03 185.03 70.29 106.89 36.65 106.89 36.65 185.03 0 185.03 0 0 36.65 0 36.65 71.91 70.17 71.91 120.99 0 165.6 0 101.03 89.01 165.74 181.64 244.88 0 284.44 0 360.83 177.08 437.99 0 477.54 0 557.37 185.03"/>
  <path class="cls-1" d="M567.77,185.03V0h100.83c35.28,0,59.91,27.99,59.91,62.7,0,34.58-25.2,63.42-59.91,63.42h-64.18s0,58.92,0,58.92h-36.65ZM666.92,91.62c18.29,0,28.62-20.64,22.88-39.64-2.94-9.72-14.18-17.5-24.33-17.5h-61.05v57.13s62.5,0,62.5,0Z"/>
</svg>