<?xml version="1.0" encoding="UTF-8"?>
<svg id="Laag_1" data-name="Laag 1" xmlns="http://www.w3.org/2000/svg" xmlns:xlink="http://www.w3.org/1999/xlink" viewBox="0 0 245.54 357.68">
  <defs>
    <style>
      .cls-1 {
        fill: url(#linear-gradient);
      }

      .cls-1, .cls-2, .cls-3, .cls-4 {
        stroke-width: 0px;
      }

      .cls-2 {
        fill: url(#linear-gradient-2);
      }

      .cls-3 {
        fill: url(#linear-gradient-3);
      }

      .cls-4 {
        fill: #fff;
      }
    </style>
    <linearGradient id="linear-gradient" x1="175.77" y1="-41.18" x2="-54.08" y2="188.68" gradientUnits="userSpaceOnUse">
      <stop offset="0" stop-color="#ea6499"/>
      <stop offset="1" stop-color="#8473b5"/>
    </linearGradient>
    <linearGradient id="linear-gradient-2" x1="262.99" y1="46.04" x2="33.13" y2="275.9" gradientUnits="userSpaceOnUse">
      <stop offset="0" stop-color="#ea6499"/>
      <stop offset="1" stop-color="#8473b5"/>
    </linearGradient>
    <linearGradient id="linear-gradient-3" x1="244.42" y1="27.48" x2="14.57" y2="257.33" gradientUnits="userSpaceOnUse">
      <stop offset="0" stop-color="#ea6499"/>
      <stop offset="1" stop-color="#8473b5"/>
    </linearGradient>
  </defs>
  <g>
    <polygon class="cls-4" points="187.45 357.68 173.11 357.68 153.83 312.1 134.54 357.68 108.17 357.68 88.88 312.1 69.6 357.68 41.38 357.68 23.64 331.4 12.33 331.4 12.33 357.68 0 357.68 0 295.45 12.33 295.45 12.33 319.64 23.6 319.64 40.69 295.45 55.69 295.45 33.98 325.39 55.74 356.53 82.36 295.45 95.66 295.45 121.35 355.02 147.3 295.45 160.6 295.45 187.45 357.68"/>
    <path class="cls-4" d="M190.94,357.68v-62.23h33.91c11.86,0,20.15,9.41,20.15,21.09s-8.47,21.33-20.15,21.33h-21.58s0,19.81,0,19.81h-12.32ZM224.29,326.27c6.15,0,9.62-6.94,7.69-13.33-.99-3.27-4.77-5.88-8.18-5.88h-20.53v19.21s21.02,0,21.02,0Z"/>
  </g>
  <g>
    <path class="cls-1" d="M48.69,122.5c0-40.66,32.96-73.62,73.62-73.62,7.97,0,15.65,1.27,22.84,3.61l24.77-42.9C155.27,3.42,139.19,0,122.3,0,59.79,0,8.21,46.83.73,107.32l49.17,28.57c-.8-4.34-1.22-8.82-1.22-13.39Z"/>
    <path class="cls-2" d="M196.23,24.81l-49.31,28.29c28.55,10.12,49,37.37,49,69.4,0,21.75-9.43,41.29-24.42,54.76l24.77,42.9c29.49-22.37,48.54-57.79,48.54-97.66s-19.06-75.32-48.58-97.69Z"/>
    <path class="cls-3" d="M50.26,137.73H.74c7.5,60.47,59.07,107.27,121.56,107.27,16.9,0,32.99-3.42,47.64-9.61l.15-56.9c-12.86,10.99-29.55,17.62-47.79,17.62-35.44,0-65.03-25.04-72.04-58.39Z"/>
  </g>
</svg>