<?xml version="1.0" encoding="UTF-8"?>
<svg xmlns="http://www.w3.org/2000/svg" version="1.1" viewBox="0 0 1491 1491">
  <defs>
    <style>
      .cls-1 {
        fill: #222323;
      }
    </style>
  </defs>
  <!-- Generator: Adobe Illustrator 28.6.0, SVG Export Plug-In . SVG Version: 1.2.0 Build 709)  -->
  <g>
    <g id="Element_01">
      <g>
        <path class="cls-1" d="M295.2,745.5c0-247.1,200.3-447.4,447.4-447.4s95.1,7.7,138.8,22l150.5-260.8C943.1,21.7,845.3.9,742.7.9,362.7.9,49.2,285.6,3.8,653.2l298.8,173.6c-4.9-26.4-7.4-53.6-7.4-81.4Z"/>
        <path class="cls-1" d="M1192,151.7l-299.7,171.9c173.5,61.5,297.8,227.2,297.8,421.8s-57.3,250.9-148.4,332.8l150.5,260.7c179.2-136,295-351.2,295-593.6s-115.9-457.8-295.2-593.8Z"/>
        <path class="cls-1" d="M304.8,838H3.8c45.6,367.5,359,652,738.9,652s200.5-20.8,289.6-58.4l.9-345.8c-78.2,66.8-179.6,107.1-290.5,107.1-215.4,0-395.2-152.2-437.9-354.9Z"/>
      </g>
    </g>
  </g>
</svg>