<?xml version="1.0" encoding="UTF-8"?>
<svg id="Element_01" xmlns="http://www.w3.org/2000/svg" viewBox="0 0 1483.46 1489.12">
  <defs>
    <style>
      .cls-1 {
        fill: #3d3d3d;
      }
    </style>
  </defs>
  <path class="cls-1" d="M291.45,744.56c0-247.12,200.33-447.44,447.45-447.44,48.45,0,95.1,7.7,138.8,21.95l150.54-260.76C939.29,20.76,841.52,0,738.9,0,358.93,0,45.44,284.62,0,652.29l298.84,173.64c-4.86-26.39-7.39-53.58-7.39-81.37Z"/>
  <path class="cls-1" d="M1188.21,150.81l-299.71,171.94c173.55,61.54,297.84,227.16,297.84,421.81,0,132.17-57.3,250.95-148.42,332.85l150.53,260.72c179.25-135.96,295.01-351.25,295.01-593.57s-115.87-457.8-295.25-593.75Z"/>
  <path class="cls-1" d="M301.04,837.1H.03c45.57,367.54,359,652.02,738.87,652.02,102.7,0,200.54-20.79,289.55-58.4l.94-345.84c-78.17,66.8-179.63,107.12-290.49,107.12-215.39,0-395.24-152.19-437.86-354.9Z"/>
</svg>