<?xml version="1.0" encoding="UTF-8"?> <svg xmlns="http://www.w3.org/2000/svg" width="260" height="109.277" viewBox="0 0 260 109.277"><g id="FoodDeltaZeeland_payoff-DIAP_kopie" data-name="FoodDeltaZeeland_payoff-DIAP kopie" transform="translate(-257.9 -229.1)"><g id="Group_12" data-name="Group 12" transform="translate(257.9 229.1)"><path id="Path_16" data-name="Path 16" d="M289.065,229.1,257.9,338.377l111.349-27.817Z" transform="translate(-257.9 -229.1)" fill="#8abd24"></path><path id="Path_17" data-name="Path 17" d="M310.447,325.543a17.2,17.2,0,0,0-14.188,0,20.735,20.735,0,0,1-15.941,0c-8.529-3.587-16.818,0-16.818,0v-2.949s8.289-3.587,16.818,0a20.735,20.735,0,0,0,15.941,0,17.2,17.2,0,0,1,14.188,0Z" transform="translate(-259.036 -247.75)" fill="#fff"></path><path id="Path_18" data-name="Path 18" d="M310.447,323.443a17.2,17.2,0,0,0-14.188,0,20.735,20.735,0,0,1-15.941,0c-8.529-3.587-16.818,0-16.818,0v-2.949s8.289-3.587,16.818,0a20.735,20.735,0,0,0,15.941,0,17.2,17.2,0,0,1,14.188,0Z" transform="translate(-259.036 -247.324)" fill="#015157"></path><path id="Path_19" data-name="Path 19" d="M315.047,309.043a17.2,17.2,0,0,0-14.188,0,20.735,20.735,0,0,1-15.941,0c-8.528-3.587-16.818,0-16.818,0v-2.949s8.289-3.587,16.818,0a20.735,20.735,0,0,0,15.941,0,17.2,17.2,0,0,1,14.188,0Z" transform="translate(-259.97 -244.402)" fill="#fff"></path><path id="Path_20" data-name="Path 20" d="M315.047,307.043a17.2,17.2,0,0,0-14.188,0,20.735,20.735,0,0,1-15.941,0c-8.528-3.587-16.818,0-16.818,0v-2.949s8.289-3.587,16.818,0a20.735,20.735,0,0,0,15.941,0,17.2,17.2,0,0,1,14.188,0Z" transform="translate(-259.97 -243.996)" fill="#015157"></path><path id="Path_21" data-name="Path 21" d="M319.647,292.643a17.2,17.2,0,0,0-14.188,0,20.735,20.735,0,0,1-15.941,0c-8.528-3.587-16.818,0-16.818,0v-2.949s8.289-3.587,16.818,0a20.735,20.735,0,0,0,15.941,0,17.2,17.2,0,0,1,14.188,0Z" transform="translate(-260.904 -241.074)" fill="#fff"></path><path id="Path_22" data-name="Path 22" d="M319.647,290.623a17.2,17.2,0,0,0-14.188,0,20.735,20.735,0,0,1-15.941,0c-8.528-3.587-16.818,0-16.818,0v-3.029s8.289-3.587,16.818,0a20.735,20.735,0,0,0,15.941,0,17.2,17.2,0,0,1,14.188,0Z" transform="translate(-260.904 -240.647)" fill="#015157"></path></g><g id="Group_14" data-name="Group 14" transform="translate(340.555 244.882)"><path id="Path_23" data-name="Path 23" d="M376.5,253.565H366.94v3.826h8.847v4.065H366.94V270.3H361.6V249.5h14.9Z" transform="translate(-361.6 -249.022)" fill="#8abd24"></path><g id="Group_13" data-name="Group 13" transform="translate(17.376)"><path id="Path_24" data-name="Path 24" d="M397.747,265.08a6.657,6.657,0,0,0,1.2-2.232,11.616,11.616,0,0,0,.4-3.029,11.969,11.969,0,0,0-.4-3.188,6.82,6.82,0,0,0-1.116-2.152,4.07,4.07,0,0,0-1.674-1.2,5.479,5.479,0,0,0-1.913-.4,4.816,4.816,0,0,0-1.913.4,4.662,4.662,0,0,0-1.674,1.2,5.508,5.508,0,0,0-1.116,2.152,9.925,9.925,0,0,0-.478,3.188,11.972,11.972,0,0,0,.4,3.188,6.822,6.822,0,0,0,1.116,2.152,4.07,4.07,0,0,0,1.674,1.2,5.181,5.181,0,0,0,3.985,0,5.617,5.617,0,0,0,1.514-1.275m7.173-5.261a10.04,10.04,0,0,1-10.76,10.84c-3.348,0-5.978-.956-7.891-2.949a10.789,10.789,0,0,1-2.869-7.891,10.984,10.984,0,0,1,2.869-7.971,10.707,10.707,0,0,1,7.891-2.949c3.348,0,5.978.956,7.891,2.949a10.984,10.984,0,0,1,2.869,7.971" transform="translate(-383.4 -248.9)" fill="#8abd24"></path><path id="Path_25" data-name="Path 25" d="M428.327,265.08a6.656,6.656,0,0,0,1.2-2.232,11.615,11.615,0,0,0,.4-3.029,11.968,11.968,0,0,0-.4-3.188,6.819,6.819,0,0,0-1.116-2.152,4.07,4.07,0,0,0-1.674-1.2,5.479,5.479,0,0,0-1.913-.4,4.816,4.816,0,0,0-1.913.4,4.661,4.661,0,0,0-1.674,1.2,5.508,5.508,0,0,0-1.116,2.152,9.926,9.926,0,0,0-.478,3.188,11.972,11.972,0,0,0,.4,3.188,6.823,6.823,0,0,0,1.116,2.152,4.07,4.07,0,0,0,1.674,1.2,5.181,5.181,0,0,0,3.985,0,7.158,7.158,0,0,0,1.514-1.275m7.094-5.261a10.04,10.04,0,0,1-10.76,10.84c-3.348,0-5.978-.956-7.891-2.949a10.789,10.789,0,0,1-2.869-7.891,10.984,10.984,0,0,1,2.869-7.971,10.707,10.707,0,0,1,7.891-2.949c3.348,0,5.978.956,7.891,2.949a10.984,10.984,0,0,1,2.869,7.971" transform="translate(-389.59 -248.9)" fill="#8abd24"></path><path id="Path_26" data-name="Path 26" d="M460.108,259.862a7.862,7.862,0,0,0-.717-3.507A5.181,5.181,0,0,0,457,254.043a6.882,6.882,0,0,0-1.674-.558,18.978,18.978,0,0,0-2.63-.159H451.34v12.992H452.7a20.839,20.839,0,0,0,2.79-.159,5.2,5.2,0,0,0,1.754-.638,5.276,5.276,0,0,0,2.152-2.232,7.065,7.065,0,0,0,.717-3.427m5.579.08a10.246,10.246,0,0,1-1.355,5.181,9.464,9.464,0,0,1-3.348,3.507,10.05,10.05,0,0,1-3.348,1.275,21.994,21.994,0,0,1-4.3.4H446V249.5h7.572a22.867,22.867,0,0,1,4.384.4,14.054,14.054,0,0,1,3.109,1.2,10.307,10.307,0,0,1,3.427,3.507,11.7,11.7,0,0,1,1.2,5.34" transform="translate(-396.104 -249.022)" fill="#8abd24"></path><path id="Path_27" data-name="Path 27" d="M490.666,259.882a9.362,9.362,0,0,0-.877-4.145,6.238,6.238,0,0,0-2.551-2.63,7.44,7.44,0,0,0-2.63-.957,19.924,19.924,0,0,0-3.348-.239h-2.63v16.021h2.63a15.472,15.472,0,0,0,3.507-.319,6.749,6.749,0,0,0,2.71-1.116,5.7,5.7,0,0,0,2.312-2.63,7.216,7.216,0,0,0,.877-3.985m2.949.08a10.4,10.4,0,0,1-1.275,5.181,9.477,9.477,0,0,1-3.268,3.587A10.278,10.278,0,0,1,485.883,270a23.7,23.7,0,0,1-4.623.4H476V249.6h5.181a19.928,19.928,0,0,1,4.862.478,11.99,11.99,0,0,1,3.029,1.2,9.415,9.415,0,0,1,3.348,3.507,10.59,10.59,0,0,1,1.2,5.181" transform="translate(-402.192 -249.042)" fill="#fff"></path></g><path id="Path_28" data-name="Path 28" d="M517.409,270.3H503.7V249.5h13.709v2.471h-11v5.739h11V260.1h-11v7.731h11Z" transform="translate(-390.438 -249.022)" fill="#fff"></path><path id="Path_29" data-name="Path 29" d="M539.551,270.3H526.4V249.5h2.71v18.332h10.441Z" transform="translate(-395.045 -249.022)" fill="#fff"></path><path id="Path_30" data-name="Path 30" d="M419.956,310H402.5V306.1l10.362-12.833h-9.884V289.2H419.4v3.985l-10.362,12.833h10.92Z" transform="translate(-369.9 -257.079)" fill="#fff"></path><path id="Path_31" data-name="Path 31" d="M444.164,310H429.1V289.2h15.064v4.065H434.44v3.587h9.007v3.985H434.44v5.181h9.724Z" transform="translate(-375.299 -257.079)" fill="#fff"></path><path id="Path_32" data-name="Path 32" d="M468.664,310H453.6V289.2h15.064v4.065H458.94v3.587h9.007v3.985H458.94v5.181h9.724Z" transform="translate(-380.271 -257.079)" fill="#fff"></path><path id="Path_33" data-name="Path 33" d="M493.185,310H478.2V289.2h5.34v16.818h9.644Z" transform="translate(-385.263 -257.079)" fill="#fff"></path><path id="Path_34" data-name="Path 34" d="M511.411,302.033l-2.551-7.492-2.551,7.492ZM519.7,310h-5.579l-1.435-4.224h-7.731L503.52,310H498.1l7.652-20.8h6.137Z" transform="translate(-389.302 -257.079)" fill="#fff"></path><path id="Path_35" data-name="Path 35" d="M547.87,310h-5.181l-8.847-14.267V310H528.9V289.2h6.456l7.572,11.956V289.2h4.942Z" transform="translate(-395.552 -257.079)" fill="#fff"></path><path id="Path_36" data-name="Path 36" d="M557.515,251.971H550.1V270.3h-2.79V251.971H539.9V249.5h17.615Z" transform="translate(-397.785 -249.022)" fill="#fff"></path><path id="Path_37" data-name="Path 37" d="M569.726,251.891l3.667,10.2h-7.333Zm-1.753-2.391L560.4,270.3h2.79l2.072-5.819h9.007l2.072,5.819h2.949l-7.572-20.8Z" transform="translate(-401.945 -249.022)" fill="#fff"></path><path id="Path_38" data-name="Path 38" d="M573.408,299.641a7.863,7.863,0,0,0-.717-3.507,5.181,5.181,0,0,0-2.391-2.311,6.888,6.888,0,0,0-1.674-.558,18.984,18.984,0,0,0-2.63-.159H564.64V306.1H566a20.845,20.845,0,0,0,2.79-.159,5.2,5.2,0,0,0,1.754-.638,5.276,5.276,0,0,0,2.152-2.232,7.51,7.51,0,0,0,.717-3.427m5.579,0a10.245,10.245,0,0,1-1.355,5.181,9.464,9.464,0,0,1-3.348,3.507,10.046,10.046,0,0,1-3.348,1.275,21.983,21.983,0,0,1-4.3.4H559.3V289.2h7.572a22.867,22.867,0,0,1,4.384.4,14.058,14.058,0,0,1,3.109,1.2,10.308,10.308,0,0,1,3.427,3.507,11.694,11.694,0,0,1,1.2,5.34" transform="translate(-401.722 -257.079)" fill="#fff"></path></g><g id="Group_15" data-name="Group 15" transform="translate(340.635 327.058)"><path id="Path_39" data-name="Path 39" d="M364.251,363.14a3.052,3.052,0,0,1-1.514-.4,2.212,2.212,0,0,1-1.036-1.2l.558-.4a2.077,2.077,0,0,0,.877.956,2.641,2.641,0,0,0,1.2.319,1.705,1.705,0,0,0,1.435-.558,3.065,3.065,0,0,0,.478-1.913V352.3h.717v7.732a6.147,6.147,0,0,1-.159,1.2,1.818,1.818,0,0,1-.478.957,2.024,2.024,0,0,1-.8.638A2.339,2.339,0,0,1,364.251,363.14Z" transform="translate(-361.7 -352.061)" fill="#fff"></path><path id="Path_40" data-name="Path 40" d="M375.5,363.079a4.344,4.344,0,0,1-1.754-.4,3.114,3.114,0,0,1-1.355-1.116,4.048,4.048,0,0,1-.877-1.754,7.054,7.054,0,0,1-.319-2.312,6.284,6.284,0,0,1,.319-2.232,6.025,6.025,0,0,1,.877-1.754,4.405,4.405,0,0,1,1.355-1.116,4.344,4.344,0,0,1,1.754-.4,4.059,4.059,0,0,1,1.754.4,3.114,3.114,0,0,1,1.355,1.116,4.047,4.047,0,0,1,.877,1.754,6.572,6.572,0,0,1,.319,2.232,7.054,7.054,0,0,1-.319,2.312,5.168,5.168,0,0,1-.877,1.754,4.4,4.4,0,0,1-1.355,1.116A3.342,3.342,0,0,1,375.5,363.079Zm0-.638a2.729,2.729,0,0,0,1.435-.319,3.243,3.243,0,0,0,1.116-.956,4.443,4.443,0,0,0,.717-1.514,8.421,8.421,0,0,0,0-3.985,4.444,4.444,0,0,0-.717-1.514,4.2,4.2,0,0,0-1.116-.956,3.126,3.126,0,0,0-1.435-.319,3.454,3.454,0,0,0-1.514.319,3.246,3.246,0,0,0-1.116.956,4.443,4.443,0,0,0-.717,1.514,8.421,8.421,0,0,0,0,3.985,3.827,3.827,0,0,0,.717,1.514,4.2,4.2,0,0,0,1.116.956A4.659,4.659,0,0,0,375.5,362.441Z" transform="translate(-363.628 -352)" fill="#fff"></path><path id="Path_41" data-name="Path 41" d="M385,362.981V352.3h.717v10.681Z" transform="translate(-366.428 -352.061)" fill="#fff"></path><path id="Path_42" data-name="Path 42" d="M389.6,362.981V352.3h.8l4.464,7.492,1.2,2.152h.08c0-.478-.08-1.036-.08-1.514v-8.05h.717V363.06h-.8l-4.463-7.492-1.2-2.152h-.08c0,.478.08,1.036.08,1.514v8.13H389.6Z" transform="translate(-367.362 -352.061)" fill="#fff"></path><path id="Path_43" data-name="Path 43" d="M408.027,362.981V352.938H404.6V352.3h7.572v.638h-3.427v10.043Z" transform="translate(-370.406 -352.061)" fill="#fff"></path><path id="Path_44" data-name="Path 44" d="M416.5,362.981V352.3h.717V357h5.739v-4.7h.717v10.681h-.717v-5.34h-5.739v5.34Z" transform="translate(-372.821 -352.061)" fill="#fff"></path><path id="Path_45" data-name="Path 45" d="M429.3,362.981V352.3h5.818v.638h-5.1V357h4.3v.638h-4.3v4.7h5.261v.638H429.3Z" transform="translate(-375.419 -352.061)" fill="#fff"></path><path id="Path_46" data-name="Path 46" d="M443.2,362.981V352.3h5.819v.638H444v4.224h4.3v.638H444v5.1h-.8Z" transform="translate(-378.24 -352.061)" fill="#fff"></path><path id="Path_47" data-name="Path 47" d="M456.187,363.12a4.049,4.049,0,0,1-1.355-.239,3.343,3.343,0,0,1-1.116-.717,3.222,3.222,0,0,1-.8-1.355,7.551,7.551,0,0,1-.319-2.072V352.2h.717v6.456a5.479,5.479,0,0,0,.239,1.754,2.939,2.939,0,0,0,.638,1.116,2.26,2.26,0,0,0,.877.638,3.707,3.707,0,0,0,2.152,0,2.235,2.235,0,0,0,.956-.638,3.727,3.727,0,0,0,.638-1.116,5.479,5.479,0,0,0,.239-1.754V352.2h.717v6.536a5.4,5.4,0,0,1-.319,2.072,5.525,5.525,0,0,1-.8,1.355,2.444,2.444,0,0,1-1.116.717A3.723,3.723,0,0,1,456.187,363.12Z" transform="translate(-380.147 -352.041)" fill="#fff"></path><path id="Path_48" data-name="Path 48" d="M467.427,362.981V352.938H464V352.3h7.572v.638h-3.427v10.043Z" transform="translate(-382.461 -352.061)" fill="#fff"></path><path id="Path_49" data-name="Path 49" d="M479.287,363.12a4.049,4.049,0,0,1-1.355-.239,3.343,3.343,0,0,1-1.116-.717,3.223,3.223,0,0,1-.8-1.355,7.549,7.549,0,0,1-.319-2.072V352.2h.717v6.456a5.479,5.479,0,0,0,.239,1.754,2.938,2.938,0,0,0,.638,1.116,2.261,2.261,0,0,0,.877.638,3.707,3.707,0,0,0,2.152,0,2.236,2.236,0,0,0,.957-.638,3.728,3.728,0,0,0,.638-1.116,5.479,5.479,0,0,0,.239-1.754V352.2h.717v6.536a5.4,5.4,0,0,1-.319,2.072,5.527,5.527,0,0,1-.8,1.355,2.445,2.445,0,0,1-1.116.717A3.724,3.724,0,0,1,479.287,363.12Z" transform="translate(-384.835 -352.041)" fill="#fff"></path><path id="Path_50" data-name="Path 50" d="M488.5,362.981V352.3h3.029a7.15,7.15,0,0,1,1.435.159,2.8,2.8,0,0,1,1.116.478,1.949,1.949,0,0,1,.717.877,3.036,3.036,0,0,1,.239,1.275,2.652,2.652,0,0,1-.717,1.993,3.092,3.092,0,0,1-1.993.877l2.949,4.942H494.4l-2.869-4.862H489.3V362.9h-.8Zm.717-5.5h2.152a3.307,3.307,0,0,0,2.152-.558,2.117,2.117,0,0,0,.717-1.754,1.74,1.74,0,0,0-.8-1.674,3.913,3.913,0,0,0-2.152-.478h-2.152v4.464Z" transform="translate(-387.433 -352.061)" fill="#fff"></path><path id="Path_51" data-name="Path 51" d="M499.3,362.981V352.3h5.819v.638h-5.1V357h4.3v.638h-4.3v4.7h5.261v.638H499.3Z" transform="translate(-389.625 -352.061)" fill="#fff"></path><path id="Path_52" data-name="Path 52" d="M516.8,363.079a4.343,4.343,0,0,1-1.753-.4,3.113,3.113,0,0,1-1.355-1.116,4.046,4.046,0,0,1-.877-1.754,7.055,7.055,0,0,1-.319-2.312,6.283,6.283,0,0,1,.319-2.232,6.02,6.02,0,0,1,.877-1.754,4.405,4.405,0,0,1,1.355-1.116,4.344,4.344,0,0,1,1.753-.4,4.059,4.059,0,0,1,1.754.4,3.115,3.115,0,0,1,1.355,1.116,4.047,4.047,0,0,1,.877,1.754,6.573,6.573,0,0,1,.319,2.232,7.055,7.055,0,0,1-.319,2.312,5.168,5.168,0,0,1-.877,1.754,4.4,4.4,0,0,1-1.355,1.116A3.342,3.342,0,0,1,516.8,363.079Zm0-.638a2.729,2.729,0,0,0,1.435-.319,3.245,3.245,0,0,0,1.116-.956,4.442,4.442,0,0,0,.717-1.514,8.421,8.421,0,0,0,0-3.985,4.442,4.442,0,0,0-.717-1.514,4.2,4.2,0,0,0-1.116-.956,3.126,3.126,0,0,0-1.435-.319,3.043,3.043,0,0,0-2.63,1.275,4.442,4.442,0,0,0-.717,1.514,8.421,8.421,0,0,0,0,3.985,3.827,3.827,0,0,0,.717,1.514,4.193,4.193,0,0,0,1.116.956A4.659,4.659,0,0,0,516.8,362.441Z" transform="translate(-392.304 -352)" fill="#fff"></path><path id="Path_53" data-name="Path 53" d="M526.3,362.981V352.3h5.819v.638H527.1v4.224h4.3v.638h-4.3v5.1h-.8Z" transform="translate(-395.104 -352.061)" fill="#fff"></path><path id="Path_54" data-name="Path 54" d="M539.4,362.981V352.3h5.818v.638H540.2v4.224h4.3v.638h-4.3v5.1h-.8Z" transform="translate(-397.763 -352.061)" fill="#fff"></path><path id="Path_55" data-name="Path 55" d="M552.3,363.079a4.343,4.343,0,0,1-1.753-.4,3.114,3.114,0,0,1-1.355-1.116,4.046,4.046,0,0,1-.877-1.754A7.054,7.054,0,0,1,548,357.5a6.283,6.283,0,0,1,.319-2.232,6.022,6.022,0,0,1,.877-1.754,4.405,4.405,0,0,1,1.355-1.116,4.344,4.344,0,0,1,1.753-.4,4.059,4.059,0,0,1,1.754.4,3.115,3.115,0,0,1,1.355,1.116,4.047,4.047,0,0,1,.877,1.754,6.571,6.571,0,0,1,.319,2.232,7.054,7.054,0,0,1-.319,2.312,5.169,5.169,0,0,1-.877,1.754,4.4,4.4,0,0,1-1.355,1.116A3.342,3.342,0,0,1,552.3,363.079Zm0-.638a2.729,2.729,0,0,0,1.435-.319,3.244,3.244,0,0,0,1.116-.956,4.443,4.443,0,0,0,.717-1.514,8.424,8.424,0,0,0,0-3.985,4.443,4.443,0,0,0-.717-1.514,4.2,4.2,0,0,0-1.116-.956,3.126,3.126,0,0,0-1.435-.319,3.043,3.043,0,0,0-2.63,1.275,4.442,4.442,0,0,0-.717,1.514,8.419,8.419,0,0,0,0,3.985,3.827,3.827,0,0,0,.717,1.514,4.2,4.2,0,0,0,1.116.956A4.66,4.66,0,0,0,552.3,362.441Z" transform="translate(-399.508 -352)" fill="#fff"></path><path id="Path_56" data-name="Path 56" d="M565.3,363.079a4.343,4.343,0,0,1-1.753-.4,3.113,3.113,0,0,1-1.355-1.116,4.047,4.047,0,0,1-.877-1.754A7.052,7.052,0,0,1,561,357.5a6.281,6.281,0,0,1,.319-2.232,6.025,6.025,0,0,1,.877-1.754,4.405,4.405,0,0,1,1.355-1.116,4.344,4.344,0,0,1,1.753-.4,4.059,4.059,0,0,1,1.754.4,3.115,3.115,0,0,1,1.355,1.116,4.045,4.045,0,0,1,.877,1.754,6.57,6.57,0,0,1,.319,2.232,7.052,7.052,0,0,1-.319,2.312,5.167,5.167,0,0,1-.877,1.754,4.4,4.4,0,0,1-1.355,1.116A3.174,3.174,0,0,1,565.3,363.079Zm0-.638a2.729,2.729,0,0,0,1.435-.319,3.243,3.243,0,0,0,1.116-.956,4.443,4.443,0,0,0,.717-1.514,8.424,8.424,0,0,0,0-3.985,4.443,4.443,0,0,0-.717-1.514,4.193,4.193,0,0,0-1.116-.956,3.126,3.126,0,0,0-1.435-.319,3.043,3.043,0,0,0-2.63,1.275,4.443,4.443,0,0,0-.717,1.514,8.424,8.424,0,0,0,0,3.985,3.827,3.827,0,0,0,.717,1.514,4.193,4.193,0,0,0,1.116.956A4.659,4.659,0,0,0,565.3,362.441Z" transform="translate(-402.146 -352)" fill="#fff"></path><path id="Path_57" data-name="Path 57" d="M574.8,362.981V352.3h2.471a6.085,6.085,0,0,1,2.152.4,3.853,3.853,0,0,1,2.391,2.71,8.731,8.731,0,0,1,.319,2.152,6.879,6.879,0,0,1-.319,2.232,4.22,4.22,0,0,1-.877,1.674,4.408,4.408,0,0,1-1.514,1.116,6.085,6.085,0,0,1-2.152.4Zm.8-.638h1.674a4.2,4.2,0,0,0,1.833-.319,3.17,3.17,0,0,0,1.275-.956,4.444,4.444,0,0,0,.717-1.514,7.771,7.771,0,0,0,0-3.826,4.046,4.046,0,0,0-.717-1.435,3.838,3.838,0,0,0-1.275-.956,4.43,4.43,0,0,0-1.833-.319H575.6Z" transform="translate(-404.947 -352.061)" fill="#fff"></path></g></g></svg> 